# xmcd
#
# Track frame offsets: 
#        150
#        12129
#        24144
#        35667
#        47346
#        59940
#        73704
#        90480
#        101489
#        113444
#
# Disc length: 1692 seconds
#
# Revision: 0
# Processed by: cddbd v1.5.2PL0 Copyright (c) Steve Scherf et al.
# Submitted via: ExactAudioCopy v0.95b4
#
DISCID=74069a0a
DTITLE=John Lee Hooker - John Lee Hooker [CD2]
DYEAR=2011
DGENRE=Blues
TTITLE0=Whiskey And Wimmen
TTITLE1=I'm In The Mood
TTITLE2=Little Wheel
TTITLE3=Hard Headed Woman
TTITLE4=I'm So Excited
TTITLE5=Road Is So Rough
TTITLE6=Blues Before Sunrise
TTITLE7=Big Fine Woman
TTITLE8=Crawlin' King Snake
TTITLE9=Hobo Blues
EXTD=
EXTT0=
EXTT1=
EXTT2=
EXTT3=
EXTT4=
EXTT5=
EXTT6=
EXTT7=
EXTT8=
EXTT9=
PLAYORDER=
